# xmcd CD database file
#
# Track frame offsets:
#	150
#	20220
#	49170
#	77300
#	107302
#	147360
#
# Disc length: 2484 seconds
#
# Revision: 0
# Processed by: cddbd v1.5PL3 Copyright (c) Steve Scherf et al.
# Submitted via: CDex 1.51
#
DISCID=4309b206
DTITLE=Rob van Bavel Trio - Just For You
DYEAR=1988
DGENRE=Jazz
TTITLE0=In Walked Bud
TTITLE1=Both Worlds
TTITLE2=If I Should Loose You
TTITLE3=For Anne
TTITLE4=Just for You
TTITLE5=Hopeless
EXTD=YEAR: 1988
EXTT0=
EXTT1=
EXTT2=
EXTT3=
EXTT4=
EXTT5=
PLAYORDER=
